<svg width="2586" height="2069" viewBox="0 0 2586 2069" fill="none" xmlns="http://www.w3.org/2000/svg">
<rect width="2586" height="2069" fill="black"/>
<path d="M1633 911.249L1303.72 546H1633V911.249Z" fill="#F6F9F8"/>
<path d="M1633 1074.5L1198.57 546C1019.66 553.865 959.489 602.13 953 759.754L1392.27 1272.35C1580.66 1270.9 1618.92 1218.85 1633 1074.5Z" fill="#F6F9F8"/>
<path d="M953 1272.35V911.249L1269.83 1272.35H953Z" fill="#F6F9F8"/>
<path d="M651.311 1579.51C642.621 1580.66 633.702 1580.66 625.012 1578.83C613.578 1576.54 603.973 1569.91 597.798 1559.85C593.91 1553.67 592.081 1545.44 593.453 1538.35C594.139 1535.6 595.511 1532.63 598.027 1531.49C601.914 1529.66 606.488 1529.66 610.605 1529.89C614.95 1529.89 619.752 1529.89 623.411 1532.17C624.783 1533.32 624.097 1534.69 622.268 1535.38C621.582 1535.6 621.124 1537.66 620.896 1538.58C619.524 1545.67 621.353 1553.67 625.469 1559.62C629.128 1565.11 634.16 1570.14 640.106 1572.65C646.509 1570.37 652.226 1565.79 655.656 1560.07C657.943 1556.64 659.544 1552.3 660.001 1548.18C660.916 1541.32 659.544 1534 656.571 1527.83C652.226 1518.45 644.679 1510.45 636.446 1504.27C629.128 1498.56 620.896 1493.98 613.578 1488.04C609.004 1484.38 605.345 1479.58 602.829 1474.32C596.197 1461.05 598.713 1439.55 610.147 1430.41C615.178 1426.29 622.268 1424.69 628.671 1424C638.276 1423.09 648.338 1424 657.715 1426.52C662.517 1427.89 667.548 1429.72 671.436 1432.92C673.494 1434.75 678.525 1441.16 678.983 1443.67C679.211 1444.81 679.897 1446.42 678.983 1447.33C677.839 1448.47 673.265 1449.39 671.665 1449.39C667.091 1449.85 655.885 1450.53 652.683 1447.33C652.226 1446.64 651.311 1443.21 651.083 1442.53C650.168 1441.16 646.28 1435.9 645.137 1434.98C643.078 1433.15 640.563 1432.01 637.819 1431.32C635.074 1433.15 632.787 1435.9 631.187 1438.87C625.927 1449.16 625.241 1461.74 629.586 1472.49C631.873 1478.2 636.218 1483.23 641.02 1487.12C649.024 1493.53 658.401 1498.1 666.176 1504.96C669.835 1507.93 673.265 1511.36 676.238 1515.02C682.413 1522.34 686.529 1531.72 687.673 1541.09C688.816 1552.3 683.785 1563.73 674.18 1570.59C667.548 1575.4 659.544 1578.37 651.311 1579.51ZM753.984 1424.46C747.352 1425.6 740.491 1425.6 733.859 1424.69C732.258 1424.46 730.657 1423.78 729.057 1423.09C728.599 1422.86 727.913 1422.17 727.913 1421.72C728.142 1420.8 729.514 1420.12 730.429 1419.89C733.63 1418.74 737.061 1418.52 740.262 1418.29C740.491 1418.29 740.491 1418.29 740.491 1418.29C745.98 1417.14 751.468 1416.69 756.957 1416.69C762.674 1416.69 768.162 1417.14 773.88 1417.14C781.426 1416.91 805.21 1415.54 811.613 1419.66C812.299 1420.12 813.443 1421.03 813.214 1421.72C812.757 1422.63 810.927 1423.32 810.012 1423.55C803.38 1425.38 795.834 1425.38 789.202 1423.55C788.973 1423.55 788.744 1423.55 788.516 1423.55C778.453 1423.78 768.391 1424.23 758.557 1423.55C757.871 1423.55 754.67 1424.46 753.984 1424.46ZM781.655 1570.14C779.139 1572.42 769.763 1572.65 766.333 1572.65C763.589 1572.42 756.728 1572.19 755.127 1569.91C754.67 1569.45 754.67 1568.76 754.898 1568.31C756.042 1550.01 756.499 1531.72 756.957 1513.19C757.185 1498.1 757.643 1483.01 757.871 1467.91C758.1 1455.56 757.871 1443.21 757.643 1430.64C757.643 1429.95 757.643 1427.66 758.1 1426.98C758.329 1426.52 759.701 1425.83 760.387 1425.83C765.418 1424.23 771.135 1424 776.624 1424.46C779.139 1424.69 781.655 1425.15 783.942 1426.29C784.628 1426.52 785.085 1427.21 785.085 1427.89C784.857 1443.67 785.543 1459.45 785.314 1475.23C784.628 1506.1 784.171 1536.98 782.341 1567.62C782.798 1568.54 782.341 1569.45 781.655 1570.14ZM805.896 1581.57C801.094 1582.71 795.834 1582.49 790.803 1582.03C788.973 1581.8 787.144 1581.34 785.543 1581.11C783.484 1580.88 781.426 1581.11 779.368 1581.11C765.875 1581.57 752.154 1582.94 738.433 1581.34C736.146 1581.11 729.514 1580.43 727.913 1578.83C726.77 1577.91 728.142 1576.77 729.514 1576.31C734.545 1574.48 740.262 1574.25 745.751 1574.71C746.666 1574.71 751.468 1575.4 752.154 1575.4C770.449 1574.71 789.202 1572.42 807.039 1576.77C808.64 1577 810.927 1577.68 810.47 1579.28C810.012 1580.43 807.268 1581.11 805.896 1581.57ZM1052.59 1586.14C1047.1 1587.06 1041.62 1587.29 1036.13 1586.37C1034.3 1586.14 1030.41 1585.23 1029.72 1583.63C1029.04 1581.8 1028.81 1573.57 1028.81 1571.74C1027.89 1537.21 1027.89 1502.67 1023.78 1468.6C1023.09 1461.74 1022.18 1455.11 1020.58 1448.47C1014.17 1459.45 1009.83 1471.57 1005.48 1483.46C999.079 1501.3 993.819 1519.37 987.873 1537.43C986.273 1542.24 981.47 1558.47 977.582 1561.67C973.695 1565.11 960.659 1564.65 955.4 1563.96C953.113 1563.5 950.368 1563.05 948.996 1561.22C946.023 1556.87 946.252 1539.72 946.252 1534.46C946.252 1509.53 947.167 1484.38 944.423 1459.45C943.965 1454.19 943.279 1449.16 942.136 1444.13C935.046 1454.88 929.558 1466.54 924.527 1477.97C914.007 1501.53 905.317 1525.54 897.084 1550.01C894.568 1557.1 892.281 1564.42 889.537 1571.51C889.308 1572.65 888.851 1573.8 887.936 1574.48C884.049 1577.45 871.471 1577 866.668 1576.08C865.067 1575.85 861.637 1575.17 860.951 1573.8C860.265 1572.65 860.494 1567.62 860.494 1566.25C861.637 1518.45 862.781 1470.89 865.296 1423.09C865.296 1422.4 865.525 1419.89 865.982 1419.2C867.126 1417.14 872.843 1416.46 875.358 1416.23C877.188 1416 878.789 1416 880.618 1416C883.82 1416 891.138 1416.69 892.968 1418.97C893.425 1419.43 892.968 1419.89 892.968 1420.57C892.968 1421.26 892.739 1422.17 892.739 1423.09C891.367 1446.87 890.681 1470.66 889.995 1494.21C895.712 1480.26 901.658 1466.54 908.976 1453.28C913.321 1445.5 917.895 1437.73 924.069 1431.78C927.042 1429.04 930.701 1426.98 934.589 1426.06C938.248 1425.15 941.907 1424.69 945.795 1424.92C950.826 1424.92 956.314 1425.15 960.888 1427.43C963.404 1428.81 965.233 1431.32 966.377 1433.84C970.036 1441.84 970.95 1450.53 971.865 1458.99C973.237 1471.11 973.695 1483.23 973.923 1495.36C979.183 1479.35 984.9 1463.11 993.133 1448.02C996.335 1442.07 1000.22 1435.67 1005.94 1432.24C1009.83 1429.72 1014.63 1428.81 1019.2 1428.35C1024.69 1427.89 1030.64 1428.35 1035.9 1429.72C1039.56 1430.86 1042.76 1433.84 1044.36 1437.27C1047.56 1443.9 1048.93 1450.99 1049.85 1458.08C1052.13 1472.71 1053.28 1487.58 1053.96 1502.22C1055.34 1525.31 1055.57 1548.41 1056.25 1571.51C1056.25 1573.57 1056.25 1580.88 1057.17 1582.49C1058.31 1584.54 1054.88 1585.69 1052.59 1586.14ZM1230.76 1581.8C1225.5 1584.32 1211.33 1584.32 1205.84 1582.03C1205.38 1581.8 1204.47 1581.11 1204.47 1580.43C1203.78 1573.57 1203.55 1566.48 1203.09 1559.62C1197.6 1567.85 1190.06 1575.4 1181.14 1579.51C1173.59 1583.17 1164.67 1583.86 1156.21 1583.17C1150.49 1582.71 1144.32 1581.8 1139.52 1578.6C1133.34 1574.94 1128.77 1568.99 1124.88 1563.05C1115.73 1548.18 1111.62 1530.34 1110.93 1512.96C1109.79 1485.52 1113.45 1457.85 1118.25 1430.86C1118.48 1429.72 1118.94 1426.98 1119.85 1426.29C1124.2 1423.32 1137.46 1423.55 1142.72 1425.15C1144.78 1425.6 1147.29 1426.52 1146.84 1428.58C1146.84 1429.04 1146.15 1429.26 1145.92 1429.72C1142.26 1449.62 1139.29 1469.97 1138.37 1490.32C1137.69 1505.19 1137.92 1520.51 1141.12 1535.15C1142.95 1543.15 1145.92 1551.16 1150.04 1558.47C1153.01 1564.19 1156.9 1569.45 1161.47 1573.8C1167.42 1569.68 1172.45 1563.96 1176.56 1558.02C1182.28 1549.1 1185.71 1538.81 1188.23 1528.74C1191.66 1515.25 1193.72 1501.53 1195.55 1487.81C1198.06 1469.74 1199.89 1451.45 1201.26 1433.15C1201.26 1432.69 1201.49 1431.09 1201.95 1430.64C1202.86 1429.49 1207.21 1428.58 1208.58 1428.35C1213.61 1427.66 1218.64 1427.66 1223.67 1428.81C1225.05 1429.04 1228.48 1429.72 1228.93 1431.09C1228.93 1431.32 1228.93 1432.24 1228.93 1432.47C1228.48 1479.35 1228.48 1526.46 1231.45 1573.34C1231.45 1575.62 1231.68 1577.91 1231.91 1580.2C1231.91 1580.88 1231.45 1581.57 1230.76 1581.8ZM1347.66 1579.51C1336.22 1580.88 1324.56 1582.49 1312.9 1582.03C1308.09 1581.8 1303.06 1581.57 1298.49 1579.97C1295.74 1579.28 1292.77 1577.91 1290.94 1575.62C1284.54 1566.71 1288.2 1534.92 1289.34 1523.71C1291.86 1493.53 1292.77 1463.34 1295.29 1433.15C1295.52 1430.18 1295.74 1427.21 1296.2 1424C1296.43 1422.4 1299.4 1421.72 1301 1421.49C1305.35 1420.57 1309.69 1420.35 1314.27 1420.8C1317.01 1421.03 1319.99 1421.26 1322.73 1422.63C1323.19 1422.86 1323.87 1423.78 1323.64 1424.23C1323.19 1427.21 1322.96 1430.18 1322.73 1433.15C1320.21 1462.65 1319.3 1492.38 1316.78 1522.11C1315.64 1536.75 1313.58 1551.61 1315.41 1566.25C1315.87 1569.45 1316.55 1573.11 1318.84 1575.17C1326.85 1574.48 1335.08 1573.11 1343.08 1572.65C1350.63 1571.97 1358.18 1572.19 1365.49 1573.57C1366.87 1573.8 1370.07 1574.48 1370.75 1575.85C1370.98 1576.77 1369.84 1577.45 1368.92 1577.91C1363.21 1579.97 1356.8 1579.97 1350.86 1579.28C1349.71 1579.06 1348.8 1579.28 1347.66 1579.51ZM1497.41 1426.98C1492.61 1428.35 1487.35 1428.12 1482.32 1427.66C1479.12 1427.43 1475.92 1426.52 1472.71 1426.29C1449.62 1425.38 1426.52 1428.35 1403.42 1427.89C1399.99 1427.66 1396.56 1427.43 1393.36 1426.75C1391.53 1426.29 1388.78 1425.15 1389.93 1423.55C1390.61 1422.86 1393.82 1421.95 1394.96 1421.72C1401.59 1420.35 1408.68 1421.26 1415.54 1421.03C1432.92 1420.12 1450.3 1419.2 1467.45 1419.2C1477.97 1419.43 1488.49 1419.89 1498.56 1422.4C1499.93 1422.63 1502.21 1423.32 1501.99 1424.92C1501.53 1426.06 1498.78 1426.75 1497.41 1426.98ZM1474.31 1588.89C1467.23 1591.18 1459.68 1591.86 1452.13 1591.4C1446.64 1591.18 1440.7 1590.26 1435.67 1587.75C1428.35 1583.86 1423.77 1575.17 1420.8 1567.16C1414.4 1549.55 1413.03 1530.34 1413.03 1511.82C1413.25 1488.49 1415.31 1465.17 1416.68 1442.07C1416.68 1439.1 1416.91 1435.9 1416.68 1432.92C1416.68 1432.47 1416.46 1431.09 1416.91 1430.64C1419.2 1428.58 1422.86 1428.35 1425.83 1428.12C1431.55 1427.66 1437.5 1427.66 1442.76 1429.72C1443.21 1430.18 1444.13 1430.64 1444.13 1431.55C1444.36 1434.3 1444.13 1437.27 1444.13 1440.01C1443.44 1455.33 1442.3 1470.89 1441.38 1486.21C1447.79 1485.52 1454.42 1484.84 1460.82 1484.61C1466.54 1484.38 1472.48 1484.38 1477.97 1485.75C1479.12 1485.98 1482.09 1486.89 1482.55 1488.04C1483.46 1489.41 1481.86 1490.55 1480.49 1491.01C1474.54 1492.84 1467.91 1492.84 1461.74 1491.92C1461.51 1491.92 1460.14 1491.7 1459.91 1491.7C1453.73 1492.15 1447.33 1493.07 1440.93 1493.75C1440.7 1500.39 1440.47 1507.02 1440.47 1513.65C1440.7 1532.17 1442.07 1551.16 1448.93 1568.54C1450.99 1573.57 1453.5 1578.83 1457.62 1582.71C1464.02 1579.51 1470.2 1575.4 1476.37 1571.74C1482.32 1568.08 1489.87 1567.62 1496.5 1568.08C1499.01 1568.31 1504.96 1568.99 1506.33 1570.82C1506.79 1571.28 1506.56 1571.97 1506.33 1572.65C1505.64 1574.71 1501.53 1575.4 1499.47 1575.85C1491.47 1580.66 1483.23 1585.92 1474.31 1588.89ZM1572.78 1582.71C1567.29 1583.4 1561.8 1583.4 1556.31 1582.26C1554.71 1581.8 1552.2 1581.11 1552.2 1579.51C1552.42 1572.88 1552.88 1566.25 1553.11 1559.62C1553.57 1539.49 1553.34 1519.6 1554.94 1499.7C1556.54 1480.49 1559.28 1461.51 1562.49 1442.76C1563.17 1439.33 1564.09 1430.18 1566.83 1428.35C1572.09 1424.46 1586.27 1425.15 1592.44 1427.43C1594.73 1428.58 1596.33 1431.09 1597.48 1433.38C1603.19 1444.59 1605.71 1457.16 1609.14 1469.06C1616.69 1496.04 1626.52 1522.34 1637.73 1547.95C1639.55 1537.21 1640.93 1526.46 1642.07 1515.48C1645.27 1489.64 1645.5 1463.34 1646.64 1437.27C1646.87 1432.24 1647.1 1426.98 1647.33 1421.72C1647.33 1421.26 1647.33 1420.8 1647.1 1420.57C1646.64 1419.89 1647.1 1418.97 1648.02 1418.52C1649.39 1417.83 1650.99 1417.37 1652.82 1417.14C1658.99 1416.23 1665.63 1416.23 1671.57 1417.83C1672.26 1418.06 1674.09 1418.97 1674.32 1419.43C1674.77 1420.12 1674.77 1421.03 1674.77 1421.72C1674.54 1427.66 1674.32 1433.61 1674.09 1439.55C1673.17 1459.91 1672.71 1480.49 1671.11 1500.84C1669.97 1515.02 1668.14 1528.97 1665.85 1543.15C1664.94 1550.24 1661.74 1571.28 1656.48 1576.08C1653.28 1579.06 1642.07 1579.74 1637.73 1579.28C1634.07 1579.06 1630.41 1578.6 1627.21 1577C1624.46 1575.4 1622.4 1572.65 1620.8 1570.14C1618.74 1566.71 1617.14 1563.28 1615.31 1559.85C1603.19 1534 1592.9 1507.02 1584.67 1479.58C1582.61 1495.13 1581.47 1510.68 1581.01 1526.46C1580.55 1543.15 1580.78 1560.07 1579.87 1576.77C1579.64 1577.45 1579.87 1579.97 1579.41 1580.43C1578.27 1581.8 1574.15 1582.49 1572.78 1582.71ZM1795.99 1578.83C1789.36 1581.34 1782.04 1581.8 1774.95 1581.8C1767.64 1581.57 1759.86 1580.43 1753.23 1577C1747.51 1574.25 1742.71 1569.45 1739.51 1563.96C1734.93 1556.41 1731.96 1547.72 1730.13 1539.03C1726.02 1519.14 1725.79 1497.87 1729.67 1477.75C1732.42 1463.57 1738.14 1448.93 1748.2 1438.64C1753 1433.38 1759.63 1429.49 1766.49 1427.21C1772.67 1425.15 1779.3 1424.69 1785.93 1424.69C1793.02 1424.69 1800.11 1425.83 1806.74 1428.35C1811.32 1430.18 1815.89 1432.92 1819.09 1436.81C1821.38 1439.78 1822.06 1443.9 1822.29 1447.79C1822.98 1457.16 1821.84 1466.77 1821.61 1476.15C1821.61 1477.29 1820.01 1478.2 1819.09 1478.43C1812 1480.49 1803.77 1480.72 1796.68 1478.43C1795.77 1478.2 1794.16 1477.29 1794.16 1476.15C1794.39 1467.45 1795.54 1458.54 1795.08 1449.62C1794.85 1445.96 1794.39 1442.07 1792.56 1438.87C1790.96 1436.12 1787.99 1434.07 1785.02 1432.69C1775.18 1437.73 1767.87 1447.56 1763.52 1457.62C1757.57 1470.43 1755.29 1484.84 1754.6 1498.79C1753.92 1514.79 1755.06 1531.26 1759.63 1546.58C1762.38 1556.64 1767.41 1567.62 1776.33 1573.11C1781.36 1570.14 1785.47 1565.11 1788.45 1560.07C1794.16 1550.7 1797.14 1539.49 1797.59 1528.51C1797.82 1526.69 1798.28 1522.34 1796.91 1520.97C1796.22 1520.28 1797.14 1519.14 1798.28 1518.91C1803.77 1516.39 1810.4 1516.62 1816.35 1517.08C1818.63 1517.31 1823.67 1518 1824.58 1519.82C1826.18 1523.26 1824.58 1534.46 1823.89 1538.12C1822.06 1548.64 1817.95 1558.93 1811.32 1567.39C1807.2 1572.19 1801.94 1576.54 1795.99 1578.83ZM1991.29 1582.49C1986.02 1585.23 1971.85 1585 1966.36 1582.71C1965.67 1582.49 1964.99 1582.03 1964.76 1581.11C1962 1567.16 1960.18 1553.21 1957.9 1539.03C1957.66 1537.89 1957.66 1536.75 1957.43 1535.38C1956.75 1535.38 1956.29 1535.38 1955.84 1535.38C1947.14 1534.92 1938.69 1534.69 1929.99 1535.15C1923.59 1535.6 1917.2 1536.75 1910.78 1536.98C1910.55 1536.98 1910.1 1536.98 1909.87 1537.21C1908.49 1537.43 1907.12 1537.89 1905.76 1538.12C1904.15 1548.18 1902.78 1558.24 1901.4 1568.31C1900.95 1571.28 1900.26 1574.48 1900.49 1577.68C1900.72 1578.37 1900.04 1579.06 1899.58 1579.28C1894.54 1581.8 1888.38 1581.57 1882.89 1581.34C1880.61 1581.11 1874.89 1580.43 1873.51 1578.83C1872.82 1577.91 1873.05 1575.17 1873.28 1574.25C1874.89 1558.7 1877.39 1543.38 1879.91 1528.29C1882.89 1509.31 1886.54 1490.32 1892.49 1472.26C1896.61 1459.68 1901.87 1446.87 1910.55 1436.81C1912.84 1434.3 1915.59 1431.78 1918.55 1430.18C1929.31 1424.23 1951.27 1424 1960.86 1431.55C1965.43 1434.98 1967.72 1440.93 1969.56 1446.42C1973.44 1460.14 1975.05 1474.32 1977.33 1488.27C1979.39 1503.13 1982.14 1518 1984.43 1532.63C1986.95 1548.87 1989 1564.88 1992.2 1580.88C1992.43 1581.34 1991.97 1582.26 1991.29 1582.49ZM1907.58 1526.23L1907.12 1529.89C1908.96 1529.89 1910.78 1529.66 1911.92 1529.66C1926.56 1527.83 1941.42 1527.83 1956.29 1528.29C1954.46 1517.08 1952.41 1505.87 1950.8 1494.44C1948.28 1479.12 1946.69 1463.8 1942.57 1448.93C1941.65 1445.04 1940.28 1440.93 1937.99 1437.5C1933.88 1441.84 1930.92 1447.1 1928.17 1452.36C1916.73 1475 1911.69 1500.84 1907.58 1526.23Z" fill="#F6F9F8"/>
</svg>
